<?xml version="1.0" encoding="UTF-8" standalone="yes"?><svg xmlns="http://www.w3.org/2000/svg" xmlns:xlink="http://www.w3.org/1999/xlink" version="1.2" baseProfile="tiny-ps" viewBox="0 0 300 300"><title>recprotech Tiny Portable</title><g><g fill="#fdfaf9" transform="matrix(.1 0 0 -.1 0 300)"><path d="M0 1500V0h3000v3000H0V1500z"></path></g><g fill="#dee1d3" transform="matrix(.1 0 0 -.1 0 300)"><path d="M780 1495V640h410v521l97-3 98-3 199-257 199-258h229c125 0 228 1 228 3s-97 129-215 283c-118 153-215 281-215 284s21 16 46 29l45 24 55 55c67 65 117 142 149 226l24 63 11 82 11 83-10 69c-14 88-42 162-90 235l-37 59-56 51-55 50-71 37-71 38-77 19-77 20H780v-855zm825 482c22-10 57-35 78-55l38-37 16-54 15-54-5-48-6-48-20-39-20-40-38-31-37-30-45-16-45-15h-346v492l188-4 187-4 40-17z"></path></g><g fill="#ffcb14" transform="matrix(.1 0 0 -.1 0 300)"><path d="m782 1498 3-853 203-3 202-2v525h195l15-20c40-56 355-463 373-482l20-23h439l-4 10c-1 5-96 131-210 279-115 149-208 273-208 278 0 4 23 22 51 38l51 30 65 69 64 70 39 80 38 81 13 60 12 60-1 74c-1 130-43 251-121 349l-42 53-62 46c-77 57-161 96-254 117l-72 16H780l2-852zm848 466 55-31 28-46 29-45 5-60 6-59-17-50-16-49-38-37-37-36-50-22-50-23-177-4-178-4v504l193-4 192-3 55-31z"></path></g><g fill="#fea2a1" transform="matrix(.1 0 0 -.1 0 300)"><path d="m782 1498 3-853 203-3 202-2v1362l193-4 192-3 55-31 55-31 28-46 29-45 5-60 6-59-17-50-16-49-38-36c-46-44-91-68-151-78l-46-8 115-1c143-1 325 14 427 35l78 16 6 10c4 6 12 38 19 72l12 61v74l-1 73-12 52c-17 75-60 164-108 224l-42 53-62 46c-77 57-161 96-254 117l-72 16H780l2-852zm963-305-40-16-157-5c-87-2-158-7-158-11 0-6 236-314 351-458l50-63h441l-4 10c-7 21-424 559-433 559-5 0-28-8-50-16zm-502-30c26-2 68-2 95 0l47 3h-190l48-3z"></path></g><g fill="#08aeac" transform="matrix(.1 0 0 -.1 0 300)"><path d="M790 1501V650h400v1350h355l36-10c52-15 99-49 134-98l30-44 3-76 3-77-28-55-28-55-42-29c-23-16-63-35-90-43l-48-13 180 5 180 5 92 15c50 8 102 19 115 24l24 9 12 38 13 39 6 95 6 95-17 65c-9 36-30 94-47 128l-31 64-63 66-63 67-63 38-64 38-80 26-80 27-422 4-423 4v-851zm955-308-40-16-157-5c-87-2-158-7-158-11 0-6 236-314 351-458l50-63h441l-4 10c-7 21-424 559-433 559-5 0-28-8-50-16z"></path></g><g fill="#ff3d47" transform="matrix(.1 0 0 -.1 0 300)"><path d="M790 1501V650h400v1350h355l36-10c52-15 99-49 134-98l30-44 3-76 3-77-28-55-28-55-42-29c-23-16-63-35-90-43l-48-13 180 5 180 5 92 15c50 8 102 19 115 24l24 9 12 38 13 39 6 95 6 95-17 65c-9 36-30 94-47 128l-31 64-63 66-63 67-63 38-64 38-80 26-80 27-422 4-423 4v-851z"></path></g></g></svg>