<?xml version="1.0" encoding="UTF-8"?>
<svg xmlns="http://www.w3.org/2000/svg"
     version="1.2" baseProfile="tiny-ps"
     viewBox="0 0 300 300">
  <title>RecProTech AI</title>
  <desc>Brand mark for RecProTech AI; square canvas with solid background; SVG Tiny P/S compliant.</desc>

  <!-- Solid background (non-transparent), square canvas -->
  <path d="M0 150v150h300V0H0z" fill="#fdfaf9"/>

  <!-- Vector-only shapes; no filters, no external refs -->
  <path d="M78 150.5V236h41v-52.1l9.7.3 9.8.3 19.9 25.7 19.9 25.8h22.9c12.5 0 22.8-.1 22.8-.3s-9.7-12.9-21.5-28.3C190.7 192.1 181 179.3 181 179s2.1-1.6 4.6-2.9l4.5-2.4 5.5-5.5c6.7-6.5 11.7-14.2 14.9-22.6l2.4-6.3 1.1-8.2 1.1-8.3-1-6.9c-1.4-8.8-4.2-16.2-9-23.5l-3.7-5.9-5.6-5.1-5.5-5-7.1-3.7-7.1-3.8-7.7-1.9-7.7-2H78zm82.5-48.2c2.2 1 5.7 3.5 7.8 5.5l3.8 3.7 1.6 5.4 1.5 5.4-.5 4.8-.6 4.8-2 3.9-2 4-3.8 3.1-3.7 3-4.5 1.6-4.5 1.5H119V99.8l18.8.4 18.7.4z" fill="#dee1d3"/>
  <path d="m78.2 150.2.3 85.3 20.3.3 20.2.2v-52.5h19.5l1.5 2c4 5.6 35.5 46.3 37.3 48.2l2 2.3h43.9l-.4-1c-.1-.5-9.6-13.1-21-27.9-11.5-14.9-20.8-27.3-20.8-27.8 0-.4 2.3-2.2 5.1-3.8l5.1-3 6.5-6.9 6.4-7 3.9-8 3.8-8.1 1.3-6 1.2-6-.1-7.4c-.1-13-4.3-25.1-12.1-34.9l-4.2-5.3-6.2-4.6c-7.7-5.7-16.1-9.6-25.4-11.7l-7.2-1.6H78zm84.8-46.6 5.5 3.1 2.8 4.6 2.9 4.5.5 6 .6 5.9-1.7 5-1.6 4.9-3.8 3.7-3.7 3.6-5 2.2-5 2.3-17.7.4-17.8.4V99.8l19.3.4 19.2.3z" fill="#ffcb14"/>
  <path d="m78.2 150.2.3 85.3 20.3.3 20.2.2V99.8l19.3.4 19.2.3 5.5 3.1 5.5 3.1 2.8 4.6 2.9 4.5.5 6 .6 5.9-1.7 5-1.6 4.9-3.8 3.6c-4.6 4.4-9.1 6.8-15.1 7.8l-4.6.8 11.5.1c14.3.1 32.5-1.4 42.7-3.5l7.8-1.6.6-1c.4-.6 1.2-3.8 1.9-7.2l1.2-6.1v-7.4l-.1-7.3-1.2-5.2c-1.7-7.5-6-16.4-10.8-22.4l-4.2-5.3-6.2-4.6c-7.7-5.7-16.1-9.6-25.4-11.7l-7.2-1.6H78zm96.3 30.5-4 1.6-15.7.5c-8.7.2-15.8.7-15.8 1.1 0 .6 23.6 31.4 35.1 45.8l5 6.3h44.1l-.4-1c-.7-2.1-42.4-55.9-43.3-55.9-.5 0-2.8.8-5 1.6m-50.2 3c2.6.2 6.8.2 9.5 0l4.7-.3h-19z" fill="#fea2a1"/>
  <path d="M79 149.9V235h40V100h35.5l3.6 1c5.2 1.5 9.9 4.9 13.4 9.8l3 4.4.3 7.6.3 7.7-2.8 5.5-2.8 5.5-4.2 2.9c-2.3 1.6-6.3 3.5-9 4.3l-4.8 1.3 18-.5 18-.5 9.2-1.5c5-.8 10.2-1.9 11.5-2.4l2.4-.9 1.2-3.8 1.3-3.9.6-9.5.6-9.5-1.7-6.5c-.9-3.6-3-9.4-4.7-12.8l-3.1-6.4-6.3-6.6-6.3-6.7-6.3-3.8-6.4-3.8-8-2.6-8-2.7-42.2-.4-42.3-.4zm95.5 30.8-4 1.6-15.7.5c-8.7.2-15.8.7-15.8 1.1 0 .6 23.6 31.4 35.1 45.8l5 6.3h44.1l-.4-1c-.7-2.1-42.4-55.9-43.3-55.9-.5 0-2.8.8-5 1.6" fill="#08aeac"/>
  <path d="M79 149.9V235h40V100h35.5l3.6 1c5.2 1.5 9.9 4.9 13.4 9.8l3 4.4.3 7.6.3 7.7-2.8 5.5-2.8 5.5-4.2 2.9c-2.3 1.6-6.3 3.5-9 4.3l-4.8 1.3 18-.5 18-.5 9.2-1.5c5-.8 10.2-1.9 11.5-2.4l2.4-.9 1.2-3.8 1.3-3.9.6-9.5.6-9.5-1.7-6.5c-.9-3.6-3-9.4-4.7-12.8l-3.1-6.4-6.3-6.6-6.3-6.7-6.3-3.8-6.4-3.8-8-2.6-8-2.7-42.2-.4-42.3-.4z" fill="#ff3d47"/>
</svg>

